<svg xmlns="http://www.w3.org/2000/svg" version="1.1" xmlns:xlink="http://www.w3.org/1999/xlink" viewBox="0 0 200 200" width="200" height="200"><metadata><rdf:RDF xmlns:rdf="http://www.w3.org/1999/02/22-rdf-syntax-ns#" xmlns:dc="http://purl.org/dc/elements/1.1/"><rdf:Description><dc:creator>RealFaviconGenerator</dc:creator><dc:source>https://realfavicongenerator.net</dc:source></rdf:Description></rdf:RDF></metadata><rect width="200" height="200" fill="url('#gradient')"></rect><defs><linearGradient id="gradient" gradientTransform="rotate(45 0.5 0.5)"><stop offset="0%" stop-color="#fff8ea"></stop><stop offset="100%" stop-color="#fff8ea"></stop></linearGradient></defs><g><g fill="#5aa3a6" transform="matrix(2.766736715700991,0,0,2.766736715700991,9.056265815685407,120.47619477223076)" stroke="#5aa3a6" stroke-width="0.2"><path d="M6.46-2.97L6.46-2.97Q6.46-3.39 6.02-3.64Q5.58-3.90 4.35-4.17Q3.12-4.44 2.31-4.89Q1.51-5.33 1.09-5.97Q0.67-6.60 0.67-7.42L0.67-7.42Q0.67-8.88 1.88-9.82Q3.08-10.76 5.02-10.76L5.02-10.76Q7.11-10.76 8.38-9.81Q9.65-8.87 9.65-7.32L9.65-7.32L6.35-7.32Q6.35-8.59 5.01-8.59L5.01-8.59Q4.49-8.59 4.14-8.31Q3.79-8.02 3.79-7.59L3.79-7.59Q3.79-7.15 4.22-6.88Q4.65-6.60 5.59-6.43Q6.53-6.25 7.25-6.01L7.25-6.01Q9.63-5.19 9.63-3.07L9.63-3.07Q9.63-1.62 8.34-0.71Q7.06 0.20 5.02 0.20L5.02 0.20Q3.66 0.20 2.60-0.29Q1.53-0.78 0.94-1.62Q0.34-2.46 0.34-3.39L0.34-3.39L3.42-3.39Q3.44-2.66 3.91-2.32Q4.38-1.98 5.11-1.98L5.11-1.98Q5.78-1.98 6.12-2.26Q6.46-2.53 6.46-2.97ZM10.76-4.82L10.75-5.38Q10.75-6.96 11.37-8.20Q11.98-9.43 13.13-10.10Q14.29-10.76 15.84-10.76L15.84-10.76Q18.21-10.76 19.58-9.29Q20.95-7.82 20.95-5.29L20.95-5.29L20.95-5.18Q20.95-2.71 19.58-1.25Q18.20 0.20 15.86 0.20L15.86 0.20Q13.60 0.20 12.24-1.16Q10.87-2.51 10.76-4.82L10.76-4.82ZM14.05-5.77L14.04-5.18Q14.04-3.71 14.50-3.03Q14.96-2.34 15.86-2.34L15.86-2.34Q17.62-2.34 17.66-5.05L17.66-5.05L17.66-5.38Q17.66-8.22 15.84-8.22L15.84-8.22Q14.19-8.22 14.05-5.77L14.05-5.77ZM21.98-5.36L21.98-5.36Q21.98-7.87 23.07-9.32Q24.15-10.76 26.09-10.76L26.09-10.76Q27.51-10.76 28.48-9.65L28.48-9.65L28.48-15L31.78-15L31.78 0L28.82 0L28.65-1.13Q27.64 0.20 26.07 0.20L26.07 0.20Q24.19 0.20 23.09-1.25Q21.98-2.70 21.98-5.36ZM25.28-5.76L25.27-5.16Q25.27-2.34 26.91-2.34L26.91-2.34Q28.01-2.34 28.48-3.26L28.48-3.26L28.48-7.29Q28.03-8.22 26.93-8.22L26.93-8.22Q25.41-8.22 25.28-5.76L25.28-5.76ZM33.24-4.82L33.23-5.38Q33.23-6.96 33.85-8.20Q34.46-9.43 35.62-10.10Q36.77-10.76 38.32-10.76L38.32-10.76Q40.69-10.76 42.06-9.29Q43.43-7.82 43.43-5.29L43.43-5.29L43.43-5.18Q43.43-2.71 42.06-1.25Q40.68 0.20 38.34 0.20L38.34 0.20Q36.08 0.20 34.72-1.16Q33.35-2.51 33.24-4.82L33.24-4.82ZM36.53-5.77L36.52-5.18Q36.52-3.71 36.98-3.03Q37.44-2.34 38.34-2.34L38.34-2.34Q40.10-2.34 40.14-5.05L40.14-5.05L40.14-5.38Q40.14-8.22 38.32-8.22L38.32-8.22Q36.67-8.22 36.53-5.77L36.53-5.77ZM44.81-10.57L47.90-10.57L48.01-9.33Q49.10-10.76 51.03-10.76L51.03-10.76Q52.68-10.76 53.49-9.78Q54.31-8.79 54.34-6.81L54.34-6.81L54.34 0L51.04 0L51.04-6.67Q51.04-7.47 50.71-7.85Q50.39-8.22 49.54-8.22L49.54-8.22Q48.57-8.22 48.11-7.46L48.11-7.46L48.11 0L44.81 0L44.81-10.57ZM65.40 0L62.11 0Q61.93-0.32 61.80-0.95L61.80-0.95Q60.89 0.20 59.26 0.20L59.26 0.20Q57.76 0.20 56.72-0.71Q55.67-1.61 55.67-2.98L55.67-2.98Q55.67-4.70 56.94-5.58Q58.21-6.46 60.63-6.46L60.63-6.46L61.65-6.46L61.65-7.01Q61.65-8.47 60.39-8.47L60.39-8.47Q59.22-8.47 59.22-7.31L59.22-7.31L55.93-7.31Q55.93-8.85 57.23-9.80Q58.54-10.76 60.56-10.76Q62.58-10.76 63.75-9.78Q64.92-8.79 64.95-7.07L64.95-7.07L64.95-2.39Q64.97-0.94 65.40-0.17L65.40-0.17L65.40 0ZM60.05-2.15L60.05-2.15Q60.66-2.15 61.07-2.41Q61.47-2.68 61.65-3.01L61.65-3.01L61.65-4.70L60.69-4.70Q58.97-4.70 58.97-3.15L58.97-3.15Q58.97-2.71 59.28-2.43Q59.58-2.15 60.05-2.15Z"></path></g></g></svg>